<svg width="382" height="56" viewBox="0 0 382 56" fill="none" xmlns="http://www.w3.org/2000/svg">
<rect width="382" height="56" rx="28" fill="white"/>
<path d="M27.0498 21.2031L31.7695 32.4971L36.5068 21.2031H37.9482V34H36.8672V28.4277L36.9551 22.7148L32.1914 34H31.3564L26.6104 22.7588L26.6982 28.3926V34H25.6172V21.2031H27.0498ZM46.9482 34C46.8428 33.7012 46.7754 33.2588 46.7461 32.6729C46.377 33.1533 45.9053 33.5254 45.3311 33.7891C44.7627 34.0469 44.1592 34.1758 43.5205 34.1758C42.6064 34.1758 41.8652 33.9209 41.2969 33.4111C40.7344 32.9014 40.4531 32.2568 40.4531 31.4775C40.4531 30.5518 40.8369 29.8193 41.6045 29.2803C42.3779 28.7412 43.4531 28.4717 44.8301 28.4717H46.7373V27.3906C46.7373 26.7109 46.5264 26.1777 46.1045 25.791C45.6885 25.3984 45.0791 25.2021 44.2764 25.2021C43.5439 25.2021 42.9375 25.3896 42.457 25.7646C41.9766 26.1396 41.7363 26.5908 41.7363 27.1182L40.6816 27.1094C40.6816 26.3535 41.0332 25.7002 41.7363 25.1494C42.4395 24.5928 43.3037 24.3145 44.3291 24.3145C45.3896 24.3145 46.2246 24.5811 46.834 25.1143C47.4492 25.6416 47.7656 26.3799 47.7832 27.3291V31.8291C47.7832 32.749 47.8799 33.4375 48.0732 33.8945V34H46.9482ZM43.6436 33.2441C44.3467 33.2441 44.9736 33.0742 45.5244 32.7344C46.0811 32.3945 46.4854 31.9404 46.7373 31.3721V29.2803H44.8564C43.8076 29.292 42.9873 29.4854 42.3955 29.8604C41.8037 30.2295 41.5078 30.7393 41.5078 31.3896C41.5078 31.9229 41.7041 32.3652 42.0967 32.7168C42.4951 33.0684 43.0107 33.2441 43.6436 33.2441ZM52.8545 29.21L51.6504 30.3701V34H50.5957V20.5H51.6504V29.1396L52.6436 28.0674L56.2822 24.4902H57.6094L53.5752 28.498L57.9609 34H56.7041L52.8545 29.21ZM62.9268 34.1758C62.1182 34.1758 61.3857 33.9766 60.7295 33.5781C60.0791 33.1797 59.5723 32.626 59.209 31.917C58.8457 31.2021 58.6641 30.4023 58.6641 29.5176V29.1396C58.6641 28.2256 58.8398 27.4023 59.1914 26.6699C59.5488 25.9375 60.0439 25.3633 60.6768 24.9473C61.3096 24.5254 61.9951 24.3145 62.7334 24.3145C63.8877 24.3145 64.8018 24.71 65.4756 25.501C66.1553 26.2861 66.4951 27.3613 66.4951 28.7266V29.3154H59.71V29.5176C59.71 30.5957 60.0176 31.4951 60.6328 32.2158C61.2539 32.9307 62.0332 33.2881 62.9707 33.2881C63.5332 33.2881 64.0283 33.1855 64.4561 32.9805C64.8896 32.7754 65.2822 32.4473 65.6338 31.9961L66.293 32.4971C65.5195 33.6162 64.3975 34.1758 62.9268 34.1758ZM62.7334 25.2109C61.9424 25.2109 61.2744 25.501 60.7295 26.0811C60.1904 26.6611 59.8623 27.4404 59.7451 28.4189H65.4492V28.3047C65.4199 27.3906 65.1592 26.6465 64.667 26.0723C64.1748 25.498 63.5303 25.2109 62.7334 25.2109ZM78.9229 34C78.8174 33.7012 78.75 33.2588 78.7207 32.6729C78.3516 33.1533 77.8799 33.5254 77.3057 33.7891C76.7373 34.0469 76.1338 34.1758 75.4951 34.1758C74.5811 34.1758 73.8398 33.9209 73.2715 33.4111C72.709 32.9014 72.4277 32.2568 72.4277 31.4775C72.4277 30.5518 72.8115 29.8193 73.5791 29.2803C74.3525 28.7412 75.4277 28.4717 76.8047 28.4717H78.7119V27.3906C78.7119 26.7109 78.501 26.1777 78.0791 25.791C77.6631 25.3984 77.0537 25.2021 76.251 25.2021C75.5186 25.2021 74.9121 25.3896 74.4316 25.7646C73.9512 26.1396 73.7109 26.5908 73.7109 27.1182L72.6562 27.1094C72.6562 26.3535 73.0078 25.7002 73.7109 25.1494C74.4141 24.5928 75.2783 24.3145 76.3037 24.3145C77.3643 24.3145 78.1992 24.5811 78.8086 25.1143C79.4238 25.6416 79.7402 26.3799 79.7578 27.3291V31.8291C79.7578 32.749 79.8545 33.4375 80.0479 33.8945V34H78.9229ZM75.6182 33.2441C76.3213 33.2441 76.9482 33.0742 77.499 32.7344C78.0557 32.3945 78.46 31.9404 78.7119 31.3721V29.2803H76.8311C75.7822 29.292 74.9619 29.4854 74.3701 29.8604C73.7783 30.2295 73.4824 30.7393 73.4824 31.3896C73.4824 31.9229 73.6787 32.3652 74.0713 32.7168C74.4697 33.0684 74.9854 33.2441 75.6182 33.2441ZM86.5254 29.1572C86.5254 27.6689 86.8535 26.4912 87.5098 25.624C88.1719 24.751 89.0742 24.3145 90.2168 24.3145C91.5 24.3145 92.4756 24.8037 93.1436 25.7822L93.1963 24.4902H94.1807V37.6562H93.126V32.8223C92.4346 33.7246 91.459 34.1758 90.1992 34.1758C89.0859 34.1758 88.1953 33.7363 87.5273 32.8574C86.8594 31.9785 86.5254 30.792 86.5254 29.2979V29.1572ZM87.5889 29.3418C87.5889 30.5723 87.835 31.5391 88.3271 32.2422C88.8252 32.9395 89.5137 33.2881 90.3926 33.2881C91.6523 33.2881 92.5635 32.7402 93.126 31.6445V26.9863C92.8623 26.418 92.4961 25.9814 92.0273 25.6768C91.5645 25.3662 91.0254 25.2109 90.4102 25.2109C89.5254 25.2109 88.834 25.5625 88.3359 26.2656C87.8379 26.9629 87.5889 27.9883 87.5889 29.3418ZM103.102 32.7959C102.469 33.7158 101.458 34.1758 100.069 34.1758C99.0557 34.1758 98.2852 33.8828 97.7578 33.2969C97.2305 32.7051 96.9609 31.832 96.9492 30.6777V24.4902H97.9951V30.5459C97.9951 32.3564 98.7275 33.2617 100.192 33.2617C101.716 33.2617 102.68 32.6318 103.084 31.3721V24.4902H104.139V34H103.119L103.102 32.7959ZM110.563 34.1758C109.755 34.1758 109.022 33.9766 108.366 33.5781C107.716 33.1797 107.209 32.626 106.846 31.917C106.482 31.2021 106.301 30.4023 106.301 29.5176V29.1396C106.301 28.2256 106.477 27.4023 106.828 26.6699C107.186 25.9375 107.681 25.3633 108.313 24.9473C108.946 24.5254 109.632 24.3145 110.37 24.3145C111.524 24.3145 112.438 24.71 113.112 25.501C113.792 26.2861 114.132 27.3613 114.132 28.7266V29.3154H107.347V29.5176C107.347 30.5957 107.654 31.4951 108.27 32.2158C108.891 32.9307 109.67 33.2881 110.607 33.2881C111.17 33.2881 111.665 33.1855 112.093 32.9805C112.526 32.7754 112.919 32.4473 113.271 31.9961L113.93 32.4971C113.156 33.6162 112.034 34.1758 110.563 34.1758ZM110.37 25.2109C109.579 25.2109 108.911 25.501 108.366 26.0811C107.827 26.6611 107.499 27.4404 107.382 28.4189H113.086V28.3047C113.057 27.3906 112.796 26.6465 112.304 26.0723C111.812 25.498 111.167 25.2109 110.37 25.2109ZM121.875 31.583C121.875 31.0615 121.664 30.6426 121.242 30.3262C120.826 30.0098 120.196 29.7637 119.353 29.5879C118.509 29.4062 117.853 29.2012 117.384 28.9727C116.921 28.7383 116.575 28.4541 116.347 28.1201C116.124 27.7861 116.013 27.3818 116.013 26.9072C116.013 26.1572 116.326 25.5391 116.953 25.0527C117.58 24.5605 118.383 24.3145 119.361 24.3145C120.422 24.3145 121.271 24.5781 121.91 25.1055C122.555 25.627 122.877 26.3096 122.877 27.1533H121.822C121.822 26.5967 121.588 26.1338 121.119 25.7646C120.656 25.3955 120.07 25.2109 119.361 25.2109C118.67 25.2109 118.113 25.3662 117.691 25.6768C117.275 25.9814 117.067 26.3799 117.067 26.8721C117.067 27.3467 117.24 27.7158 117.586 27.9795C117.938 28.2373 118.573 28.4746 119.493 28.6914C120.419 28.9082 121.11 29.1396 121.567 29.3857C122.03 29.6318 122.373 29.9277 122.596 30.2734C122.818 30.6191 122.93 31.0381 122.93 31.5303C122.93 32.333 122.604 32.9746 121.954 33.4551C121.31 33.9355 120.466 34.1758 119.423 34.1758C118.315 34.1758 117.416 33.9092 116.725 33.376C116.039 32.8369 115.696 32.1572 115.696 31.3369H116.751C116.792 31.9521 117.05 32.4326 117.524 32.7783C118.005 33.1182 118.638 33.2881 119.423 33.2881C120.155 33.2881 120.747 33.127 121.198 32.8047C121.649 32.4824 121.875 32.0752 121.875 31.583ZM126.938 22.0557V24.4902H128.906V25.3516H126.938V31.6885C126.938 32.2158 127.031 32.6084 127.219 32.8662C127.412 33.124 127.731 33.2529 128.177 33.2529C128.353 33.2529 128.637 33.2236 129.029 33.165L129.073 34.0264C128.798 34.126 128.423 34.1758 127.948 34.1758C127.228 34.1758 126.703 33.9678 126.375 33.5518C126.047 33.1299 125.883 32.5117 125.883 31.6973V25.3516H124.134V24.4902H125.883V22.0557H126.938ZM132.264 34H131.209V24.4902H132.264V34ZM131.024 21.7393C131.024 21.54 131.089 21.373 131.218 21.2383C131.347 21.0977 131.522 21.0273 131.745 21.0273C131.968 21.0273 132.144 21.0977 132.272 21.2383C132.407 21.373 132.475 21.54 132.475 21.7393C132.475 21.9385 132.407 22.1055 132.272 22.2402C132.144 22.375 131.968 22.4424 131.745 22.4424C131.522 22.4424 131.347 22.375 131.218 22.2402C131.089 22.1055 131.024 21.9385 131.024 21.7393ZM134.549 29.1045C134.549 28.1904 134.725 27.3672 135.076 26.6348C135.434 25.9023 135.935 25.334 136.579 24.9297C137.229 24.5195 137.965 24.3145 138.785 24.3145C140.051 24.3145 141.076 24.7598 141.861 25.6504C142.646 26.5352 143.039 27.71 143.039 29.1748V29.3945C143.039 30.3145 142.86 31.1436 142.503 31.8818C142.151 32.6143 141.653 33.1797 141.009 33.5781C140.364 33.9766 139.629 34.1758 138.803 34.1758C137.543 34.1758 136.518 33.7334 135.727 32.8486C134.941 31.958 134.549 30.7803 134.549 29.3154V29.1045ZM135.604 29.3945C135.604 30.5312 135.896 31.4658 136.482 32.1982C137.074 32.9248 137.848 33.2881 138.803 33.2881C139.752 33.2881 140.52 32.9248 141.105 32.1982C141.697 31.4658 141.993 30.502 141.993 29.3066V29.1045C141.993 28.3779 141.858 27.7129 141.589 27.1094C141.319 26.5059 140.941 26.04 140.455 25.7119C139.969 25.3779 139.412 25.2109 138.785 25.2109C137.848 25.2109 137.083 25.5801 136.491 26.3184C135.899 27.0508 135.604 28.0117 135.604 29.2012V29.3945ZM146.221 24.4902L146.256 26.1162C146.613 25.5303 147.059 25.085 147.592 24.7803C148.125 24.4697 148.714 24.3145 149.358 24.3145C150.378 24.3145 151.137 24.6016 151.635 25.1758C152.133 25.75 152.385 26.6113 152.391 27.7598V34H151.345V27.751C151.339 26.9014 151.157 26.2686 150.8 25.8525C150.448 25.4365 149.883 25.2285 149.104 25.2285C148.453 25.2285 147.876 25.4336 147.372 25.8438C146.874 26.248 146.505 26.7959 146.265 27.4873V34H145.219V24.4902H146.221ZM163.008 33.2881C163.74 33.2881 164.353 33.083 164.845 32.6729C165.343 32.2568 165.612 31.7207 165.653 31.0645H166.664C166.635 31.6445 166.453 32.1748 166.119 32.6553C165.785 33.1299 165.34 33.502 164.783 33.7715C164.232 34.041 163.641 34.1758 163.008 34.1758C161.76 34.1758 160.77 33.7422 160.037 32.875C159.311 32.0078 158.947 30.8418 158.947 29.377V29.0605C158.947 28.123 159.111 27.2939 159.439 26.5732C159.768 25.8525 160.236 25.2959 160.846 24.9033C161.461 24.5107 162.179 24.3145 162.999 24.3145C164.042 24.3145 164.9 24.625 165.574 25.2461C166.254 25.8672 166.617 26.6846 166.664 27.6982H165.653C165.606 26.9541 165.337 26.3535 164.845 25.8965C164.358 25.4395 163.743 25.2109 162.999 25.2109C162.05 25.2109 161.312 25.5537 160.784 26.2393C160.263 26.9248 160.002 27.8857 160.002 29.1221V29.4297C160.002 30.6426 160.263 31.5889 160.784 32.2686C161.312 32.9482 162.053 33.2881 163.008 33.2881ZM174.776 34C174.671 33.7012 174.604 33.2588 174.574 32.6729C174.205 33.1533 173.733 33.5254 173.159 33.7891C172.591 34.0469 171.987 34.1758 171.349 34.1758C170.435 34.1758 169.693 33.9209 169.125 33.4111C168.562 32.9014 168.281 32.2568 168.281 31.4775C168.281 30.5518 168.665 29.8193 169.433 29.2803C170.206 28.7412 171.281 28.4717 172.658 28.4717H174.565V27.3906C174.565 26.7109 174.354 26.1777 173.933 25.791C173.517 25.3984 172.907 25.2021 172.104 25.2021C171.372 25.2021 170.766 25.3896 170.285 25.7646C169.805 26.1396 169.564 26.5908 169.564 27.1182L168.51 27.1094C168.51 26.3535 168.861 25.7002 169.564 25.1494C170.268 24.5928 171.132 24.3145 172.157 24.3145C173.218 24.3145 174.053 24.5811 174.662 25.1143C175.277 25.6416 175.594 26.3799 175.611 27.3291V31.8291C175.611 32.749 175.708 33.4375 175.901 33.8945V34H174.776ZM171.472 33.2441C172.175 33.2441 172.802 33.0742 173.353 32.7344C173.909 32.3945 174.313 31.9404 174.565 31.3721V29.2803H172.685C171.636 29.292 170.815 29.4854 170.224 29.8604C169.632 30.2295 169.336 30.7393 169.336 31.3896C169.336 31.9229 169.532 32.3652 169.925 32.7168C170.323 33.0684 170.839 33.2441 171.472 33.2441ZM179.602 34H178.547V20.5H179.602V34ZM183.645 34H182.59V20.5H183.645V34ZM192.521 22.0557V24.4902H194.49V25.3516H192.521V31.6885C192.521 32.2158 192.615 32.6084 192.803 32.8662C192.996 33.124 193.315 33.2529 193.761 33.2529C193.937 33.2529 194.221 33.2236 194.613 33.165L194.657 34.0264C194.382 34.126 194.007 34.1758 193.532 34.1758C192.812 34.1758 192.287 33.9678 191.959 33.5518C191.631 33.1299 191.467 32.5117 191.467 31.6973V25.3516H189.718V24.4902H191.467V22.0557H192.521ZM195.914 29.1045C195.914 28.1904 196.09 27.3672 196.441 26.6348C196.799 25.9023 197.3 25.334 197.944 24.9297C198.595 24.5195 199.33 24.3145 200.15 24.3145C201.416 24.3145 202.441 24.7598 203.227 25.6504C204.012 26.5352 204.404 27.71 204.404 29.1748V29.3945C204.404 30.3145 204.226 31.1436 203.868 31.8818C203.517 32.6143 203.019 33.1797 202.374 33.5781C201.729 33.9766 200.994 34.1758 200.168 34.1758C198.908 34.1758 197.883 33.7334 197.092 32.8486C196.307 31.958 195.914 30.7803 195.914 29.3154V29.1045ZM196.969 29.3945C196.969 30.5312 197.262 31.4658 197.848 32.1982C198.439 32.9248 199.213 33.2881 200.168 33.2881C201.117 33.2881 201.885 32.9248 202.471 32.1982C203.062 31.4658 203.358 30.502 203.358 29.3066V29.1045C203.358 28.3779 203.224 27.7129 202.954 27.1094C202.685 26.5059 202.307 26.04 201.82 25.7119C201.334 25.3779 200.777 25.2109 200.15 25.2109C199.213 25.2109 198.448 25.5801 197.856 26.3184C197.265 27.0508 196.969 28.0117 196.969 29.2012V29.3945ZM216.964 34C216.858 33.7012 216.791 33.2588 216.762 32.6729C216.393 33.1533 215.921 33.5254 215.347 33.7891C214.778 34.0469 214.175 34.1758 213.536 34.1758C212.622 34.1758 211.881 33.9209 211.312 33.4111C210.75 32.9014 210.469 32.2568 210.469 31.4775C210.469 30.5518 210.853 29.8193 211.62 29.2803C212.394 28.7412 213.469 28.4717 214.846 28.4717H216.753V27.3906C216.753 26.7109 216.542 26.1777 216.12 25.791C215.704 25.3984 215.095 25.2021 214.292 25.2021C213.56 25.2021 212.953 25.3896 212.473 25.7646C211.992 26.1396 211.752 26.5908 211.752 27.1182L210.697 27.1094C210.697 26.3535 211.049 25.7002 211.752 25.1494C212.455 24.5928 213.319 24.3145 214.345 24.3145C215.405 24.3145 216.24 24.5811 216.85 25.1143C217.465 25.6416 217.781 26.3799 217.799 27.3291V31.8291C217.799 32.749 217.896 33.4375 218.089 33.8945V34H216.964ZM213.659 33.2441C214.362 33.2441 214.989 33.0742 215.54 32.7344C216.097 32.3945 216.501 31.9404 216.753 31.3721V29.2803H214.872C213.823 29.292 213.003 29.4854 212.411 29.8604C211.819 30.2295 211.523 30.7393 211.523 31.3896C211.523 31.9229 211.72 32.3652 212.112 32.7168C212.511 33.0684 213.026 33.2441 213.659 33.2441ZM224.127 33.2881C224.859 33.2881 225.472 33.083 225.964 32.6729C226.462 32.2568 226.731 31.7207 226.772 31.0645H227.783C227.754 31.6445 227.572 32.1748 227.238 32.6553C226.904 33.1299 226.459 33.502 225.902 33.7715C225.352 34.041 224.76 34.1758 224.127 34.1758C222.879 34.1758 221.889 33.7422 221.156 32.875C220.43 32.0078 220.066 30.8418 220.066 29.377V29.0605C220.066 28.123 220.23 27.2939 220.559 26.5732C220.887 25.8525 221.355 25.2959 221.965 24.9033C222.58 24.5107 223.298 24.3145 224.118 24.3145C225.161 24.3145 226.02 24.625 226.693 25.2461C227.373 25.8672 227.736 26.6846 227.783 27.6982H226.772C226.726 26.9541 226.456 26.3535 225.964 25.8965C225.478 25.4395 224.862 25.2109 224.118 25.2109C223.169 25.2109 222.431 25.5537 221.903 26.2393C221.382 26.9248 221.121 27.8857 221.121 29.1221V29.4297C221.121 30.6426 221.382 31.5889 221.903 32.2686C222.431 32.9482 223.172 33.2881 224.127 33.2881ZM231.527 22.0557V24.4902H233.496V25.3516H231.527V31.6885C231.527 32.2158 231.621 32.6084 231.809 32.8662C232.002 33.124 232.321 33.2529 232.767 33.2529C232.942 33.2529 233.227 33.2236 233.619 33.165L233.663 34.0264C233.388 34.126 233.013 34.1758 232.538 34.1758C231.817 34.1758 231.293 33.9678 230.965 33.5518C230.637 33.1299 230.473 32.5117 230.473 31.6973V25.3516H228.724V24.4902H230.473V22.0557H231.527ZM236.854 34H235.799V24.4902H236.854V34ZM235.614 21.7393C235.614 21.54 235.679 21.373 235.808 21.2383C235.937 21.0977 236.112 21.0273 236.335 21.0273C236.558 21.0273 236.733 21.0977 236.862 21.2383C236.997 21.373 237.064 21.54 237.064 21.7393C237.064 21.9385 236.997 22.1055 236.862 22.2402C236.733 22.375 236.558 22.4424 236.335 22.4424C236.112 22.4424 235.937 22.375 235.808 22.2402C235.679 22.1055 235.614 21.9385 235.614 21.7393ZM239.139 29.1045C239.139 28.1904 239.314 27.3672 239.666 26.6348C240.023 25.9023 240.524 25.334 241.169 24.9297C241.819 24.5195 242.555 24.3145 243.375 24.3145C244.641 24.3145 245.666 24.7598 246.451 25.6504C247.236 26.5352 247.629 27.71 247.629 29.1748V29.3945C247.629 30.3145 247.45 31.1436 247.093 31.8818C246.741 32.6143 246.243 33.1797 245.599 33.5781C244.954 33.9766 244.219 34.1758 243.393 34.1758C242.133 34.1758 241.107 33.7334 240.316 32.8486C239.531 31.958 239.139 30.7803 239.139 29.3154V29.1045ZM240.193 29.3945C240.193 30.5312 240.486 31.4658 241.072 32.1982C241.664 32.9248 242.438 33.2881 243.393 33.2881C244.342 33.2881 245.109 32.9248 245.695 32.1982C246.287 31.4658 246.583 30.502 246.583 29.3066V29.1045C246.583 28.3779 246.448 27.7129 246.179 27.1094C245.909 26.5059 245.531 26.04 245.045 25.7119C244.559 25.3779 244.002 25.2109 243.375 25.2109C242.438 25.2109 241.673 25.5801 241.081 26.3184C240.489 27.0508 240.193 28.0117 240.193 29.2012V29.3945ZM250.811 24.4902L250.846 26.1162C251.203 25.5303 251.648 25.085 252.182 24.7803C252.715 24.4697 253.304 24.3145 253.948 24.3145C254.968 24.3145 255.727 24.6016 256.225 25.1758C256.723 25.75 256.975 26.6113 256.98 27.7598V34H255.935V27.751C255.929 26.9014 255.747 26.2686 255.39 25.8525C255.038 25.4365 254.473 25.2285 253.693 25.2285C253.043 25.2285 252.466 25.4336 251.962 25.8438C251.464 26.248 251.095 26.7959 250.854 27.4873V34H249.809V24.4902H250.811Z" fill="black" fill-opacity="0.8"/>
<rect x="334" y="8" width="40" height="40" rx="20" fill="#2176FF"/>
<path d="M362.595 18.1262L344.488 28.5694C343.781 28.9756 343.871 29.9597 344.574 30.2566L348.727 31.9984L359.951 22.1097C360.165 21.9184 360.47 22.2113 360.287 22.4339L350.875 33.8964V37.0403C350.875 37.962 351.989 38.3252 352.536 37.6574L355.016 34.6385L359.884 36.6771C360.439 36.9115 361.072 36.5639 361.173 35.9663L363.986 19.0947C364.119 18.3058 363.271 17.7356 362.595 18.1262Z" fill="white"/>
</svg>
